<svg width="30" height="31" viewBox="0 0 30 31" fill="none" xmlns="http://www.w3.org/2000/svg">
<path fill-rule="evenodd" clip-rule="evenodd" d="M10 5.5H4C2.94 5.5 1.92004 5.9215 1.17004 6.6715C0.420044 7.4215 0 8.439 0 9.5V25C0 26.061 0.420044 27.0785 1.17004 27.8285C1.92004 28.5785 2.94 29 4 29H5V29.5C5 30.052 5.45 30.5 6 30.5C6.55 30.5 7 30.052 7 29.5V29H23V29.5C23 30.052 23.45 30.5 24 30.5C24.55 30.5 25 30.052 25 29.5V29H26C27.06 29 28.08 28.5785 28.83 27.8285C29.58 27.0785 30 26.061 30 25V9.5C30 8.439 29.58 7.4215 28.83 6.6715C28.08 5.9215 27.06 5.5 26 5.5H20V3.5C20 1.843 18.655 0.5 17 0.5H13C11.345 0.5 10 1.843 10 3.5V5.5ZM7 8.5V26C7 26.552 7.45 27 8 27C8.55 27 9 26.552 9 26V8.5C9 7.948 8.55 7.5 8 7.5C7.45 7.5 7 7.948 7 8.5ZM21 8.5V26C21 26.552 21.45 27 22 27C22.55 27 23 26.552 23 26V8.5C23 7.948 22.55 7.5 22 7.5C21.45 7.5 21 7.948 21 8.5ZM18 5.5V3.5C18 2.9475 17.555 2.5 17 2.5H13C12.445 2.5 12 2.9475 12 3.5V5.5H18Z" fill="black"/>
</svg>
